<svg width="390" height="365" viewBox="0 0 390 365" fill="none" xmlns="http://www.w3.org/2000/svg">
<g clip-path="url(#clip0_7_16)">
<path d="M288.004 16.0006C294.411 22.449 297.117 30.6351 298.623 39.9417C297.709 47.1076 297.316 53.6112 296.384 60.0366C295.831 63.8479 294.428 67.5359 293.407 71.2794C293.407 71.2794 293.459 71.2309 293.095 71.3098C292.01 73.0406 291.29 74.6924 290.569 76.3443C290.569 76.3443 290.464 76.3193 290.139 76.3631C289.591 77.0027 289.368 77.5986 289.145 78.1944C289.145 78.1944 289.117 78.0854 288.91 78.1681C288.48 78.7215 288.258 79.1922 288.036 79.6628C279.878 89.801 270.493 99.2115 263.92 110.29C257.835 120.546 254.582 132.572 260.776 145.297C261.517 146.157 261.934 146.467 262.351 146.778C262.351 146.778 262.195 146.839 262.255 147.05C262.653 147.437 262.99 147.612 263.328 147.787C263.328 147.787 263.17 147.825 263.247 148.042C263.674 148.407 264.024 148.554 264.375 148.701C264.375 148.701 264.223 148.738 264.276 149.038C271.401 155.729 282.753 156.024 289.234 149.838C289.575 149.363 289.686 149.029 289.797 148.695C289.797 148.695 289.86 148.83 290.07 148.77C290.483 148.396 290.686 148.082 290.888 147.768C290.888 147.768 290.909 147.91 291.114 147.81C291.489 147.378 291.66 147.046 291.831 146.715C291.831 146.715 291.856 146.871 292.069 146.776C292.414 146.328 292.547 145.974 292.68 145.62C292.68 145.62 292.71 145.788 292.971 145.706C293.445 145.023 293.657 144.423 293.869 143.823C293.869 143.823 293.903 143.934 294.143 143.79C294.537 143.033 294.691 142.419 294.845 141.805C294.845 141.805 294.877 141.917 295.186 141.795C297.623 132.728 299.752 123.784 301.881 114.84C301.881 114.84 301.912 114.942 302.152 114.798C302.552 114.044 302.712 113.436 302.871 112.827C302.871 112.827 302.904 112.935 303.142 112.798C303.558 112.065 303.736 111.468 303.914 110.872C303.914 110.872 303.937 110.952 304.222 110.836C304.942 109.741 305.377 108.763 305.812 107.785C305.812 107.785 305.844 107.89 306.066 107.813C306.52 107.252 306.752 106.769 306.985 106.285C308.859 103.881 310.577 101.324 312.688 99.1497C313.484 98.3302 315.191 98.3958 316.483 98.0579C316.569 99.2621 316.854 100.492 316.704 101.666C316.213 105.503 315.564 109.32 314.54 113.672C313.86 115.699 313.248 117.243 313.428 118.689C314.522 127.47 315.797 136.228 317.062 145.406C317.406 147.77 317.918 149.716 317.955 151.672C318.095 158.905 318.079 166.141 318.121 173.377C318.129 181.617 312.64 187.454 309.012 194.091C306.072 199.469 300.834 203.927 301.216 210.612C301.387 213.591 302.634 217.848 304.769 219.024C307.233 220.38 312.09 220.177 314.362 218.525C319.488 214.799 323.662 209.763 328.873 205.078C330.991 201.558 332.459 198.221 333.926 194.885C333.926 194.885 333.954 194.961 334.247 194.831C335.564 192.805 336.588 190.909 337.817 188.633C338.244 192.377 339.306 195.737 338.862 198.884C337.407 209.205 335.582 219.484 333.532 229.706C332.606 234.323 330.812 238.766 329.411 243.287C329.411 243.287 329.455 243.142 329.102 243.281C328.523 244.317 328.298 245.215 328.072 246.113C328.072 246.113 328.043 246.037 327.757 246.163C327.108 247.291 326.746 248.293 326.383 249.295C326.383 249.295 326.306 249.089 326.028 249.239C325.595 250.019 325.44 250.648 325.285 251.278C325.285 251.278 325.233 251.149 324.972 251.256C324.531 251.98 324.351 252.597 324.171 253.213C324.171 253.213 324.132 253.087 323.892 253.214C323.467 253.941 323.281 254.542 323.096 255.142C323.096 255.142 323.073 255.054 322.79 255.166C322.057 256.253 321.606 257.227 321.155 258.201C321.155 258.201 321.126 258.09 320.832 258.187C319.906 259.634 319.273 260.984 318.641 262.333C318.641 262.333 318.556 262.431 318.173 262.405C317.199 263.503 316.609 264.628 316.018 265.754C308.834 276.67 299.338 285.514 290.039 294.514C287.641 296.835 284.707 298.593 282.087 300.695C276.132 305.47 276.157 305.479 269.375 301.15C268.192 300.396 266.908 299.801 265.266 298.662C261.267 296.102 262.615 292.844 262.887 289.841C262.887 289.841 262.916 289.934 263.127 289.82C263.392 289.362 263.446 289.019 263.5 288.675C263.5 288.675 263.513 288.612 263.866 288.58C264.448 287.652 264.676 286.756 264.904 285.86C264.904 285.86 264.928 285.948 265.223 285.824C266.389 284.143 267.54 282.68 268.086 281.017C273.614 264.205 276.29 246.964 273.823 229.356C272.806 222.102 270.012 215.097 268.013 207.595C265.941 203.163 263.882 199.114 261.824 195.064C261.824 195.064 261.921 195.06 261.914 194.782C261.553 194.018 261.199 193.532 260.845 193.046C260.845 193.046 260.937 193.049 260.923 192.766C260.528 192.016 260.147 191.55 259.766 191.083C259.766 191.083 259.885 191.078 259.912 190.752C258.799 188.754 257.658 187.083 256.517 185.411C256.517 185.411 256.537 185.315 256.605 185.047C256.395 184.539 256.116 184.299 255.837 184.059C255.837 184.059 255.929 184.059 255.922 183.759C255.224 182.659 254.533 181.858 253.842 181.057C253.842 181.057 253.933 181.057 253.923 180.793C253.387 180.028 252.861 179.525 252.334 179.023C244.003 168.405 234.713 158.794 223.327 151.378C221.729 150.337 220.207 149.181 218.265 147.588C216.523 146.45 215.165 145.803 213.807 145.156C213.807 145.156 213.907 145.121 213.799 144.909C213.351 144.663 213.011 144.629 212.671 144.594C212.671 144.594 212.541 144.571 212.541 144.196C210.613 143.058 208.684 142.296 206.755 141.534C206.755 141.534 206.659 141.527 206.6 141.159C205.637 140.573 204.732 140.355 203.827 140.138C203.827 140.138 203.925 140.111 203.808 139.814C202.896 138.992 202.17 138.231 201.298 137.98C191.879 135.276 182.437 132.653 172.551 130.003C166.06 129.667 160.021 129.219 153.975 129.097C152.669 129.07 151.339 130.214 150.02 130.819C147.347 130.876 144.673 130.932 141.127 131C133.846 132.628 127.438 134.245 121.03 135.861C113.35 139.305 105.609 142.623 98.0256 146.267C95.7203 147.375 93.8374 149.37 91.7798 150.983C85.1461 156.184 77.6553 160.607 72.0582 166.753C56.3874 183.961 45.0718 203.849 38.3833 226.912C37.2276 228.84 36.2426 230.29 36.0701 231.83C34.9459 241.873 33.9979 251.936 32.8495 262.282C29.8168 266.069 30.152 260.146 28.1616 261.016C27.6906 258.631 27.2197 256.246 27.1145 253.207C27.6099 251.759 27.977 250.919 27.8342 250.177C25.5666 238.393 25.6075 226.637 27.8114 214.835C29.048 208.213 29.9189 201.523 30.9546 194.863C35.4654 183.931 39.491 172.764 44.6155 162.127C50.433 150.052 59.5669 140.274 69.4403 131.382C77.7189 123.925 86.5474 117.285 97.1815 113.044C106.613 109.282 115.665 104.433 124.52 99.42C128.602 97.1091 132.339 93.6852 135.303 90.0153C140.353 83.7626 146.747 79.7505 154.47 76.282C156.779 75.4533 158.535 75.013 160.212 74.3695C168.116 71.338 175.909 67.9867 183.917 65.2683C190.141 63.1558 196.624 61.8077 202.992 60.1199C204.852 59.7311 206.713 59.3422 208.573 58.9534C208.799 59.2287 209.025 59.504 209.251 59.7793C208.361 60.8398 207.644 62.1456 206.551 62.9189C201.423 66.5454 195.667 69.4626 191.125 73.695C184.95 79.4493 178.636 85.5062 175.454 93.5212C174.476 95.984 175.53 100.24 177.202 102.556C180.333 106.891 184.407 110.975 190.66 109.973C197.159 108.931 203.453 105.974 206.441 100.415C215.867 82.8836 231.032 73.6279 249.242 68.0007C256.559 65.7394 262.693 61.5364 268.444 56.4388C276.112 49.6422 280.689 41.1465 284.428 31.2563C285.523 26.7893 286.095 22.7694 286.803 18.7734C286.974 17.8085 287.592 16.9228 288.004 16.0006Z" fill="currentColor"/>
<path d="M113.116 210.111C119.925 200.446 126.538 191.081 133.763 180.848C137.555 182.65 141.79 184.024 145.301 186.448C156.469 194.156 167.383 202.232 178.362 210.211C184.078 214.365 189.752 218.579 195.396 222.831C200.388 226.592 199.75 230.64 195.444 235.422C189.368 242.168 184.044 249.628 178.755 257.038C170.646 268.399 162.802 279.951 154.926 291.476C151.485 296.512 148.327 297.439 143.485 293.848C129.715 283.635 116.137 273.164 102.375 262.94C96.4801 258.562 90.3172 254.544 84.0526 250.208C94.1685 236.261 103.544 223.335 113.116 210.111Z" fill="currentColor"/>
<path d="M205.949 275.245C222.37 285.446 238.894 295.484 255.171 305.909C264.732 312.033 273.857 318.833 283.258 325.212C288.599 328.836 294.074 332.263 299.536 335.705C304.508 338.837 304.863 347.644 300.123 351.84C298.763 353.044 297.402 354.247 295.566 355.779C294.763 356.483 294.435 356.858 294.108 357.233C294.108 357.233 294.089 357.127 293.743 357.093C288.706 359.498 284.199 357.41 279.644 356.498C279.644 356.498 279.909 356.32 279.759 356.056C279.012 355.574 278.414 355.355 277.816 355.135C277.816 355.135 277.918 355.101 277.814 354.882C277.369 354.51 277.027 354.357 276.685 354.204C276.685 354.204 276.856 354.19 276.779 353.916C275.74 353.139 274.778 352.637 273.815 352.134C273.815 352.134 273.922 352.104 273.822 351.822C272.422 350.736 271.122 349.931 269.822 349.127C269.822 349.127 269.922 349.094 269.818 348.876C269.378 348.498 269.041 348.338 268.705 348.177C268.705 348.177 268.869 348.154 268.773 347.943C268.32 347.62 267.962 347.508 267.605 347.396C267.605 347.396 267.75 347.404 267.679 347.102C267.015 346.573 266.423 346.346 265.83 346.119C265.83 346.119 265.929 346.092 265.845 345.842C264.942 345.067 264.122 344.543 263.302 344.019C257.68 339.814 251.977 335.713 246.455 331.381C237.126 324.063 227.941 316.559 218.634 309.211C214.459 305.915 210.004 302.965 205.914 299.571C202.073 296.384 198.638 292.709 194.831 289.476C193.449 288.303 191.142 286.72 189.882 287.151C182.3 289.742 177.304 285.519 171.446 280.572C176.467 272.608 181.461 264.458 186.81 256.549C187.375 255.713 190.032 256.291 192.034 256.816C192.956 257.574 193.563 257.729 194.17 257.884C194.17 257.884 194.071 257.917 194.159 258.128C194.543 258.546 194.838 258.752 195.134 258.959C195.134 258.959 195.028 258.96 195.152 259.232C196.246 259.959 197.216 260.415 198.186 260.871C198.186 260.871 198.08 260.912 198.174 261.124C198.585 261.527 198.902 261.718 199.219 261.909C199.219 261.909 199.075 261.927 199.167 262.125C199.561 262.529 199.862 262.737 200.164 262.945C200.164 262.945 200.069 262.942 200.055 263.298C200.06 265.894 199.723 268.219 200.228 270.345C200.547 271.693 202.118 272.744 203.128 273.928C203.128 273.928 203.044 273.949 203.145 274.159C203.541 274.565 203.837 274.761 204.133 274.957C204.133 274.957 204.028 274.958 204.134 275.148C204.81 275.307 205.379 275.276 205.949 275.245Z" fill="currentColor"/>
<path d="M104.09 308.994C90.7142 299.533 77.6527 290.258 64.6263 280.934C58.4868 276.54 56.1811 271.729 58.2185 267.38C62.7692 257.664 68.3424 251.999 75.8546 254.254C80.4865 255.645 84.5587 259.144 88.6567 262.018C96.8497 267.764 104.971 273.619 112.966 279.637C121.04 285.714 128.903 292.072 136.903 298.248C140.593 301.096 144.516 303.654 148.106 306.619C151.646 309.543 151.954 312.968 149.554 317.101C146.424 322.492 143.455 327.387 136.365 328.424C130.228 329.322 127.028 324.791 122.879 322.241C116.467 318.302 110.547 313.562 104.09 308.994Z" fill="currentColor"/>
<path d="M174.453 164.6C178.678 167.696 182.589 170.601 186.554 173.43C197.609 181.32 208.692 189.171 219.754 197.051C227.562 202.614 227.095 209.821 222.073 216.344C219.896 219.172 218.13 222.098 213.839 223.268C208.533 224.716 205.414 221.936 202.068 219.497C193.38 213.165 185.036 206.361 176.389 199.969C170.828 195.858 164.933 192.2 159.261 188.234C152.954 183.824 146.713 179.319 140.475 174.811C133.985 170.12 133.511 163.74 138.993 155.668C143.45 149.103 149.582 147.596 156.018 151.814C162.169 155.844 168.124 160.175 174.453 164.6Z" fill="currentColor"/>
<path d="M268.026 207.979C270.012 215.097 272.806 222.102 273.823 229.356C276.29 246.964 273.614 264.205 268.087 281.017C267.54 282.68 266.389 284.143 265.178 285.823C270.044 272.9 272.491 259.314 273.039 245.311C273.533 232.701 271.11 220.614 267.304 208.383C267.554 207.994 268.026 207.979 268.026 207.979Z" fill="currentColor"/>
<path d="M329.668 243.066C330.812 238.766 332.606 234.323 333.532 229.706C335.583 219.485 337.407 209.205 338.862 198.884C339.306 195.737 338.244 192.377 337.817 188.633C336.588 190.91 335.564 192.805 334.207 194.832C335.055 190.325 336.238 185.688 337.629 180.231C343.016 202.606 339.467 223.084 329.668 243.066Z" fill="currentColor"/>
<path d="M30.6217 195.033C29.919 201.523 29.048 208.213 27.8114 214.835C25.6075 226.637 25.5666 238.393 27.8342 250.177C27.977 250.919 27.6099 251.759 27.1768 252.8C26.3376 242.341 24.9947 231.596 25.5195 220.943C25.9449 212.306 28.6145 203.778 30.6217 195.033Z" fill="currentColor"/>
<path d="M202.667 60.0328C196.624 61.8078 190.141 63.1558 183.917 65.2684C175.909 67.9867 168.116 71.338 160.212 74.3696C158.535 75.013 156.779 75.4533 154.687 75.9822C166.26 71.3311 178.139 66.5025 190.189 62.1455C194.006 60.7652 198.278 60.6434 202.667 60.0328Z" fill="currentColor"/>
<path d="M293.66 71.0477C294.428 67.5359 295.831 63.8479 296.384 60.0366C297.316 53.6112 297.709 47.1076 298.588 40.3368C300.579 50.8378 298.733 61.0653 293.66 71.0477Z" fill="currentColor"/>
<path d="M173.001 130.007C182.437 132.653 191.879 135.276 201.298 137.98C202.17 138.231 202.896 138.992 203.802 139.864C193.875 137.471 183.837 134.73 173.398 131.607C173 130.82 173 130.413 173.001 130.007Z" fill="currentColor"/>
<path d="M32.9922 261.993C33.9978 251.936 34.9458 241.873 36.0701 231.83C36.2425 230.29 37.2276 228.84 38.2064 227.222C37.0598 238.434 35.5436 249.771 33.7296 261.553C33.4319 261.997 32.9922 261.993 32.9922 261.993Z" fill="currentColor"/>
<path d="M317.012 144.994C315.797 136.228 314.522 127.47 313.428 118.689C313.248 117.243 313.86 115.699 314.468 114.111C315.912 124.107 316.992 134.194 317.816 144.632C317.377 144.988 317.195 144.991 317.012 144.994Z" fill="currentColor"/>
<path d="M317.062 145.406C317.194 144.991 317.377 144.987 317.834 144.976C321.222 154.189 320.274 163.505 318.436 173.106C318.079 166.141 318.095 158.905 317.955 151.672C317.918 149.716 317.406 147.77 317.062 145.406Z" fill="currentColor"/>
<path d="M32.8495 262.282C32.9922 261.993 33.432 261.997 33.6519 261.999C33.8717 266.416 33.8717 270.831 33.8717 275.245C33.5193 275.366 33.1668 275.487 32.8143 275.607C31.2227 270.995 29.631 266.383 28.1005 261.394C30.152 260.146 29.8168 266.069 32.8495 262.282ZM31.7573 266.821C31.5928 266.876 31.4284 266.931 31.264 266.986C31.4295 267.039 31.5951 267.092 31.7573 266.821Z" fill="currentColor"/>
<path d="M301.589 115.054C299.752 123.784 297.623 132.728 295.128 141.789C296.94 133.027 299.118 124.148 301.589 115.054Z" fill="currentColor"/>
<path d="M172.551 130.003C173 130.413 172.999 130.82 172.994 131.531C165.642 131.541 158.294 131.247 150.483 130.886C151.339 130.214 152.669 129.07 153.975 129.097C160.021 129.219 166.06 129.667 172.551 130.003Z" fill="currentColor"/>
<path d="M289.004 149.98C282.753 156.024 271.401 155.729 264.307 148.966C272.132 153.791 280.134 154.558 288.671 149.503C289.003 149.581 289.004 149.98 289.004 149.98Z" fill="currentColor"/>
<path d="M288.024 15.65C287.592 16.9228 286.974 17.8085 286.803 18.7734C286.095 22.7694 285.523 26.7893 284.53 30.895C284.514 24.7468 284.868 18.5038 285.241 11.9282C286.108 12.9702 287.076 14.1348 288.024 15.65Z" fill="currentColor"/>
<path d="M121.444 135.93C127.438 134.245 133.846 132.628 140.683 131.027C134.694 132.695 128.276 134.347 121.444 135.93Z" fill="currentColor"/>
<path d="M268.013 207.595C268.026 207.979 267.554 207.994 267.317 207.996C265.365 203.935 263.649 199.871 261.879 195.435C263.882 199.114 265.941 203.163 268.013 207.595Z" fill="currentColor"/>
<path d="M279.863 356.751C284.199 357.41 288.706 359.498 293.796 357.105C289.447 361.158 284.749 360.539 279.863 356.751Z" fill="currentColor"/>
<path d="M202.922 273.572C202.118 272.744 200.547 271.693 200.228 270.345C199.723 268.219 200.06 265.894 200.069 263.253C200.97 266.307 201.843 269.762 202.922 273.572Z" fill="currentColor"/>
<path d="M333.667 195.116C332.459 198.221 330.991 201.558 329.16 204.914C330.334 201.738 331.871 198.543 333.667 195.116Z" fill="currentColor"/>
<path d="M262.608 290.018C262.614 292.844 261.267 296.102 264.922 298.528C263.186 297.788 261.389 296.711 259.35 295.488C260.423 293.581 261.376 291.888 262.608 290.018Z" fill="currentColor"/>
<path d="M256.63 185.726C257.658 187.083 258.799 188.754 259.895 190.809C258.815 189.475 257.779 187.758 256.63 185.726Z" fill="currentColor"/>
<path d="M290.795 76.1264C291.29 74.6925 292.01 73.0407 293.092 71.3453C292.643 72.8374 291.832 74.373 290.795 76.1264Z" fill="currentColor"/>
<path d="M206.981 141.76C208.684 142.296 210.613 143.058 212.476 144.183C210.676 143.693 208.941 142.84 206.981 141.76Z" fill="currentColor"/>
<path d="M318.853 262.121C319.273 260.984 319.906 259.634 320.889 258.195C320.515 259.372 319.79 260.64 318.853 262.121Z" fill="currentColor"/>
<path d="M213.966 145.431C215.165 145.803 216.523 146.45 217.931 147.446C216.696 147.099 215.411 146.403 213.966 145.431Z" fill="currentColor"/>
<path d="M269.973 349.417C271.122 349.931 272.422 350.736 273.818 351.878C272.651 351.379 271.388 350.543 269.973 349.417Z" fill="currentColor"/>
<path d="M316.32 265.687C316.609 264.628 317.199 263.503 318.142 262.462C317.871 263.571 317.246 264.595 316.32 265.687Z" fill="currentColor"/>
<path d="M198.04 260.577C197.216 260.415 196.246 259.959 195.158 259.179C195.992 259.331 196.943 259.807 198.04 260.577Z" fill="currentColor"/>
<path d="M263.352 344.314C264.122 344.543 264.942 345.067 265.842 345.893C265.082 345.666 264.241 345.137 263.352 344.314Z" fill="currentColor"/>
<path d="M321.433 258.042C321.606 257.227 322.057 256.252 322.836 255.167C322.68 255.999 322.195 256.941 321.433 258.042Z" fill="currentColor"/>
<path d="M253.92 181.367C254.533 181.858 255.224 182.659 255.909 183.803C255.268 183.323 254.634 182.5 253.92 181.367Z" fill="currentColor"/>
<path d="M305.533 107.945C305.377 108.763 304.942 109.742 304.181 110.835C304.321 110.002 304.787 109.054 305.533 107.945Z" fill="currentColor"/>
<path d="M326.626 249.096C326.745 248.293 327.108 247.291 327.797 246.164C327.706 246.992 327.287 247.944 326.626 249.096Z" fill="currentColor"/>
<path d="M273.96 352.42C274.778 352.637 275.74 353.14 276.753 353.998C275.904 353.804 275.005 353.255 273.96 352.42Z" fill="currentColor"/>
<path d="M252.406 179.287C252.861 179.525 253.387 180.028 253.91 180.837C253.431 180.613 252.954 180.082 252.406 179.287Z" fill="currentColor"/>
<path d="M328.342 245.927C328.298 245.215 328.523 244.317 329.112 243.355C329.188 244.108 328.9 244.924 328.342 245.927Z" fill="currentColor"/>
<path d="M204.003 140.407C204.732 140.355 205.637 140.573 206.552 141.165C205.768 141.252 204.974 140.964 204.003 140.407Z" fill="currentColor"/>
<path d="M264.637 286.037C264.676 286.756 264.448 287.652 263.849 288.553C263.776 287.776 264.073 286.994 264.637 286.037Z" fill="currentColor"/>
<path d="M277.952 355.399C278.414 355.355 279.012 355.574 279.629 356.139C279.128 356.21 278.609 355.937 277.952 355.399Z" fill="currentColor"/>
<path d="M205.645 275.123C205.379 275.276 204.81 275.307 204.14 275.095C204.474 274.902 204.908 274.951 205.645 275.123Z" fill="currentColor"/>
<path d="M294.36 357.164C294.435 356.858 294.763 356.483 295.357 356.067C295.286 356.383 294.949 356.739 294.36 357.164Z" fill="currentColor"/>
<path d="M306.711 106.333C306.752 106.769 306.52 107.252 306.012 107.801C305.97 107.371 306.204 106.876 306.711 106.333Z" fill="currentColor"/>
<path d="M288.3 79.6093C288.258 79.1922 288.48 78.7215 288.965 78.175C289.007 78.5847 288.785 79.0702 288.3 79.6093Z" fill="currentColor"/>
<path d="M289.407 78.0625C289.368 77.5986 289.591 77.0028 290.162 76.412C290.229 76.9216 289.949 77.4261 289.407 78.0625Z" fill="currentColor"/>
<path d="M265.967 346.38C266.423 346.346 267.015 346.573 267.619 347.144C267.122 347.206 266.612 346.924 265.967 346.38Z" fill="currentColor"/>
<path d="M194.01 257.61C193.563 257.729 192.956 257.574 192.191 257.136C192.639 257.015 193.245 257.175 194.01 257.61Z" fill="currentColor"/>
<path d="M293.602 143.965C293.657 144.423 293.445 145.024 292.893 145.671C292.814 145.182 293.075 144.644 293.602 143.965Z" fill="currentColor"/>
<path d="M323.368 254.99C323.281 254.542 323.467 253.941 323.958 253.217C324.055 253.674 323.848 254.256 323.368 254.99Z" fill="currentColor"/>
<path d="M324.441 253.06C324.351 252.597 324.531 251.981 325.04 251.27C325.15 251.752 324.931 252.329 324.441 253.06Z" fill="currentColor"/>
<path d="M325.538 251.112C325.44 250.648 325.595 250.019 326.097 249.325C326.226 249.822 326.009 250.384 325.538 251.112Z" fill="currentColor"/>
<path d="M303.652 111.035C303.736 111.468 303.558 112.065 303.086 112.798C302.991 112.356 303.19 111.777 303.652 111.035Z" fill="currentColor"/>
<path d="M262.274 146.518C261.934 146.467 261.517 146.157 261.059 145.562C261.411 145.604 261.804 145.93 262.274 146.518Z" fill="currentColor"/>
<path d="M302.6 112.988C302.712 113.436 302.552 114.044 302.099 114.798C301.98 114.345 302.155 113.747 302.6 112.988Z" fill="currentColor"/>
<path d="M260.893 193.352C261.199 193.532 261.553 194.018 261.902 194.829C261.578 194.656 261.26 194.157 260.893 193.352Z" fill="currentColor"/>
<path d="M259.828 191.386C260.147 191.55 260.528 192.016 260.91 192.81C260.571 192.655 260.231 192.172 259.828 191.386Z" fill="currentColor"/>
<path d="M294.584 141.977C294.691 142.419 294.537 143.033 294.085 143.791C293.965 143.339 294.144 142.744 294.584 141.977Z" fill="currentColor"/>
<path d="M267.725 347.64C267.962 347.508 268.32 347.62 268.756 348.024C268.504 348.172 268.174 348.028 267.725 347.64Z" fill="currentColor"/>
<path d="M263.23 147.523C262.99 147.612 262.653 147.437 262.26 146.967C262.513 146.867 262.823 147.063 263.23 147.523Z" fill="currentColor"/>
<path d="M268.816 348.437C269.041 348.338 269.378 348.498 269.818 348.929C269.59 349.031 269.258 348.864 268.816 348.437Z" fill="currentColor"/>
<path d="M290.623 147.862C290.686 148.082 290.483 148.396 289.996 148.772C289.927 148.541 290.142 148.248 290.623 147.862Z" fill="currentColor"/>
<path d="M276.798 354.463C277.027 354.357 277.369 354.51 277.813 354.936C277.58 355.047 277.245 354.885 276.798 354.463Z" fill="currentColor"/>
<path d="M264.267 148.445C264.024 148.554 263.674 148.407 263.263 147.963C263.522 147.841 263.841 148.015 264.267 148.445Z" fill="currentColor"/>
<path d="M291.57 146.82C291.66 147.046 291.489 147.378 291.043 147.802C290.948 147.571 291.128 147.249 291.57 146.82Z" fill="currentColor"/>
<path d="M195.04 258.698C194.838 258.752 194.543 258.546 194.158 258.076C194.361 258.021 194.654 258.229 195.04 258.698Z" fill="currentColor"/>
<path d="M289.234 149.838C289.004 149.98 289.003 149.582 289.003 149.382C289.003 149.183 289.34 148.842 289.569 148.769C289.686 149.029 289.575 149.363 289.234 149.838Z" fill="currentColor"/>
<path d="M212.819 144.783C213.011 144.629 213.351 144.663 213.794 144.962C213.576 145.181 213.266 145.096 212.819 144.783Z" fill="currentColor"/>
<path d="M255.894 184.324C256.116 184.299 256.395 184.538 256.65 185.068C256.401 185.101 256.176 184.845 255.894 184.324Z" fill="currentColor"/>
<path d="M263.286 288.81C263.446 289.019 263.392 289.362 263.079 289.819C262.903 289.603 262.987 289.274 263.286 288.81Z" fill="currentColor"/>
<path d="M204.039 274.699C203.837 274.761 203.541 274.565 203.144 274.116C203.343 274.056 203.643 274.248 204.039 274.699Z" fill="currentColor"/>
<path d="M200.073 262.678C199.862 262.737 199.561 262.529 199.173 262.052C199.385 261.992 199.683 262.202 200.073 262.678Z" fill="currentColor"/>
<path d="M199.12 261.643C198.902 261.718 198.585 261.527 198.17 261.067C198.389 260.992 198.705 261.185 199.12 261.643Z" fill="currentColor"/>
<path d="M292.428 145.736C292.547 145.974 292.414 146.328 291.991 146.761C291.859 146.511 292.018 146.182 292.428 145.736Z" fill="currentColor"/>
<path d="M31.7589 266.983C31.5951 267.092 31.4295 267.039 31.2639 266.986C31.4284 266.931 31.5928 266.876 31.7589 266.983Z" fill="currentColor"/>
</g>
<defs>
<clipPath id="clip0_7_16">
<rect width="390" height="365" fill="white"/>
</clipPath>
</defs>
</svg>
