<svg width="390" height="365" viewBox="0 0 390 365" fill="none" xmlns="http://www.w3.org/2000/svg">
<g clip-path="url(#clip0_3970_8)">
<mask id="mask0_3970_8" style="mask-type:luminance" maskUnits="userSpaceOnUse" x="0" y="0" width="390" height="365">
<path d="M390 0H0V365H390V0Z" fill="white"/>
</mask>
<g mask="url(#mask0_3970_8)">
<path d="M288.006 16.0039C294.413 22.4523 297.119 30.6384 298.625 39.945C297.711 47.1109 297.318 53.6145 296.386 60.0399C295.833 63.8512 294.43 67.5392 293.409 71.2827C293.409 71.2827 293.461 71.2342 293.097 71.3131C292.012 73.0439 291.292 74.6957 290.571 76.3476C290.571 76.3476 290.466 76.3226 290.141 76.3664C289.593 77.006 289.37 77.6019 289.147 78.1977C289.147 78.1977 289.119 78.0887 288.912 78.1714C288.482 78.7248 288.26 79.1955 288.038 79.6661C279.88 89.8043 270.495 99.2148 263.922 110.293C257.837 120.549 254.584 132.575 260.778 145.3C261.519 146.16 261.936 146.47 262.353 146.781C262.353 146.781 262.197 146.842 262.257 147.053C262.655 147.44 262.992 147.615 263.33 147.79C263.33 147.79 263.172 147.828 263.249 148.045C263.676 148.41 264.026 148.557 264.377 148.704C264.377 148.704 264.225 148.741 264.278 149.041C271.403 155.732 282.755 156.027 289.236 149.841C289.577 149.366 289.688 149.032 289.799 148.698C289.799 148.698 289.862 148.833 290.072 148.773C290.485 148.399 290.688 148.085 290.89 147.771C290.89 147.771 290.911 147.913 291.116 147.813C291.491 147.381 291.662 147.049 291.833 146.718C291.833 146.718 291.858 146.874 292.071 146.779C292.416 146.331 292.549 145.977 292.682 145.623C292.682 145.623 292.712 145.791 292.973 145.709C293.447 145.026 293.659 144.426 293.871 143.826C293.871 143.826 293.905 143.937 294.145 143.793C294.539 143.036 294.693 142.422 294.847 141.808C294.847 141.808 294.879 141.92 295.188 141.798C297.625 132.731 299.754 123.787 301.883 114.843C301.883 114.843 301.914 114.945 302.154 114.801C302.554 114.047 302.714 113.439 302.873 112.83C302.873 112.83 302.906 112.938 303.144 112.801C303.56 112.068 303.738 111.471 303.916 110.875C303.916 110.875 303.939 110.955 304.224 110.839C304.944 109.744 305.379 108.766 305.814 107.788C305.814 107.788 305.846 107.893 306.068 107.816C306.522 107.255 306.754 106.772 306.987 106.288C308.861 103.884 310.579 101.327 312.69 99.153C313.486 98.3335 315.193 98.3991 316.485 98.0612C316.571 99.2654 316.856 100.495 316.706 101.669C316.215 105.506 315.566 109.323 314.542 113.675C313.862 115.702 313.25 117.246 313.43 118.692C314.524 127.473 315.799 136.231 317.064 145.409C317.408 147.773 317.92 149.719 317.957 151.675C318.097 158.908 318.081 166.144 318.123 173.38C318.131 181.62 312.642 187.457 309.014 194.094C306.074 199.472 300.836 203.93 301.218 210.615C301.389 213.594 302.636 217.851 304.771 219.027C307.235 220.383 312.092 220.18 314.364 218.528C319.49 214.802 323.664 209.766 328.875 205.081C330.993 201.561 332.461 198.224 333.928 194.888C333.928 194.888 333.956 194.964 334.249 194.834C335.566 192.808 336.59 190.912 337.819 188.636C338.246 192.38 339.308 195.74 338.864 198.887C337.409 209.208 335.584 219.487 333.534 229.709C332.608 234.326 330.814 238.769 329.413 243.29C329.413 243.29 329.457 243.145 329.104 243.284C328.525 244.32 328.3 245.218 328.074 246.116C328.074 246.116 328.045 246.04 327.759 246.166C327.11 247.294 326.748 248.296 326.385 249.298C326.385 249.298 326.308 249.092 326.03 249.242C325.597 250.022 325.442 250.651 325.287 251.281C325.287 251.281 325.235 251.152 324.974 251.259C324.533 251.983 324.353 252.6 324.173 253.216C324.173 253.216 324.134 253.09 323.894 253.217C323.469 253.944 323.283 254.545 323.098 255.145C323.098 255.145 323.075 255.057 322.792 255.169C322.059 256.256 321.608 257.23 321.157 258.204C321.157 258.204 321.128 258.093 320.834 258.19C319.908 259.637 319.275 260.987 318.643 262.336C318.643 262.336 318.558 262.434 318.175 262.408C317.201 263.506 316.611 264.631 316.02 265.757C308.836 276.673 299.34 285.517 290.041 294.517C287.643 296.838 284.709 298.596 282.089 300.698C276.134 305.473 276.159 305.482 269.377 301.153C268.194 300.399 266.91 299.804 265.268 298.665C261.269 296.105 262.617 292.847 262.889 289.844C262.889 289.844 262.918 289.937 263.129 289.823C263.394 289.365 263.448 289.022 263.502 288.678C263.502 288.678 263.515 288.615 263.868 288.583C264.45 287.655 264.678 286.759 264.906 285.863C264.906 285.863 264.93 285.951 265.225 285.827C266.391 284.146 267.542 282.683 268.088 281.02C273.616 264.208 276.292 246.967 273.825 229.359C272.808 222.105 270.014 215.1 268.015 207.598C265.943 203.166 263.884 199.117 261.826 195.067C261.826 195.067 261.923 195.063 261.916 194.785C261.555 194.021 261.201 193.535 260.847 193.049C260.847 193.049 260.939 193.052 260.925 192.769C260.53 192.019 260.149 191.553 259.768 191.086C259.768 191.086 259.887 191.081 259.914 190.755C258.801 188.757 257.66 187.086 256.519 185.414C256.519 185.414 256.539 185.318 256.607 185.05C256.397 184.542 256.118 184.302 255.839 184.062C255.839 184.062 255.931 184.062 255.924 183.762C255.226 182.662 254.535 181.861 253.844 181.06C253.844 181.06 253.935 181.06 253.925 180.796C253.389 180.031 252.863 179.528 252.336 179.026C244.005 168.408 234.715 158.797 223.329 151.381C221.731 150.34 220.209 149.184 218.267 147.591C216.525 146.453 215.167 145.806 213.809 145.159C213.809 145.159 213.909 145.124 213.801 144.912C213.353 144.666 213.013 144.632 212.673 144.597C212.673 144.597 212.543 144.574 212.543 144.199C210.615 143.061 208.686 142.299 206.757 141.537C206.757 141.537 206.661 141.53 206.602 141.162C205.639 140.576 204.734 140.358 203.829 140.141C203.829 140.141 203.927 140.114 203.81 139.817C202.898 138.995 202.172 138.234 201.3 137.983C191.881 135.279 182.439 132.656 172.553 130.006C166.062 129.67 160.023 129.222 153.977 129.1C152.671 129.073 151.341 130.217 150.022 130.822C147.349 130.879 144.675 130.935 141.129 131.003C133.848 132.631 127.44 134.248 121.032 135.864C113.352 139.308 105.611 142.626 98.0281 146.27C95.7228 147.378 93.8399 149.373 91.7823 150.986C85.1486 156.187 77.6578 160.61 72.0607 166.756C56.3899 183.964 45.0743 203.852 38.3858 226.915C37.2301 228.843 36.2451 230.293 36.0726 231.833C34.9484 241.876 34.0004 251.939 32.852 262.285C29.8193 266.072 30.1545 260.149 28.1641 261.019C27.6931 258.634 27.2222 256.249 27.117 253.21C27.6124 251.762 27.9795 250.922 27.8367 250.18C25.5691 238.396 25.61 226.64 27.8139 214.838C29.0505 208.216 29.9214 201.526 30.9571 194.866C35.4679 183.934 39.4935 172.767 44.618 162.13C50.4355 150.055 59.5694 140.277 69.4428 131.385C77.7214 123.928 86.5499 117.288 97.184 113.047C106.615 109.285 115.667 104.436 124.522 99.4233C128.604 97.1124 132.341 93.6885 135.305 90.0186C140.355 83.7659 146.749 79.7538 154.472 76.2853C156.781 75.4566 158.537 75.0163 160.214 74.3728C168.118 71.3413 175.911 67.99 183.919 65.2716C190.143 63.1591 196.626 61.811 202.994 60.1232C204.854 59.7344 206.715 59.3455 208.575 58.9567C208.801 59.232 209.027 59.5073 209.253 59.7826C208.363 60.8431 207.646 62.1489 206.553 62.9222C201.425 66.5487 195.669 69.4659 191.127 73.6983C184.952 79.4526 178.638 85.5095 175.456 93.5245C174.478 95.9873 175.532 100.243 177.204 102.559C180.335 106.894 184.409 110.978 190.662 109.976C197.161 108.934 203.455 105.977 206.443 100.418C215.869 82.8869 231.034 73.6312 249.244 68.004C256.561 65.7427 262.695 61.5397 268.446 56.4421C276.114 49.6455 280.691 41.1498 284.43 31.2596C285.525 26.7926 286.097 22.7727 286.805 18.7767C286.976 17.8118 287.594 16.9261 288.006 16.0039Z" fill="#FF6600"/>
<path d="M113.118 210.111C119.927 200.446 126.54 191.081 133.765 180.848C137.557 182.65 141.792 184.024 145.303 186.448C156.471 194.156 167.385 202.232 178.364 210.211C184.08 214.365 189.754 218.579 195.398 222.831C200.39 226.592 199.752 230.64 195.446 235.422C189.37 242.168 184.046 249.628 178.757 257.038C170.648 268.399 162.804 279.951 154.928 291.476C151.487 296.512 148.329 297.439 143.487 293.848C129.717 283.635 116.139 273.164 102.377 262.94C96.4822 258.562 90.3193 254.544 84.0547 250.208C94.1706 236.261 103.546 223.335 113.118 210.111Z" fill="#FF6600"/>
<path d="M205.948 275.247C222.369 285.448 238.893 295.486 255.17 305.911C264.731 312.035 273.856 318.835 283.257 325.214C288.598 328.838 294.073 332.264 299.535 335.706C304.507 338.838 304.862 347.646 300.122 351.842C298.762 353.046 297.401 354.249 295.565 355.781C294.762 356.485 294.434 356.86 294.107 357.235C294.107 357.235 294.088 357.128 293.742 357.094C288.705 359.499 284.198 357.411 279.643 356.499C279.643 356.499 279.908 356.322 279.758 356.058C279.011 355.576 278.413 355.357 277.815 355.137C277.815 355.137 277.917 355.102 277.813 354.883C277.368 354.511 277.026 354.359 276.684 354.206C276.684 354.206 276.855 354.191 276.778 353.917C275.739 353.14 274.777 352.639 273.814 352.136C273.814 352.136 273.921 352.106 273.821 351.824C272.421 350.738 271.121 349.933 269.821 349.129C269.821 349.129 269.921 349.096 269.817 348.878C269.377 348.5 269.04 348.34 268.704 348.179C268.704 348.179 268.868 348.156 268.772 347.945C268.319 347.622 267.961 347.51 267.604 347.398C267.604 347.398 267.749 347.406 267.678 347.104C267.014 346.575 266.422 346.347 265.829 346.12C265.829 346.12 265.928 346.094 265.844 345.844C264.941 345.069 264.121 344.545 263.301 344.021C257.679 339.816 251.976 335.715 246.454 331.383C237.125 324.065 227.94 316.561 218.633 309.213C214.458 305.917 210.003 302.967 205.913 299.573C202.072 296.386 198.637 292.711 194.83 289.478C193.448 288.305 191.141 286.722 189.881 287.153C182.299 289.744 177.303 285.521 171.445 280.574C176.466 272.61 181.46 264.46 186.809 256.551C187.374 255.715 190.031 256.293 192.033 256.818C192.955 257.576 193.562 257.731 194.169 257.886C194.169 257.886 194.07 257.919 194.158 258.13C194.542 258.548 194.837 258.754 195.133 258.961C195.133 258.961 195.027 258.962 195.151 259.234C196.245 259.961 197.215 260.417 198.185 260.873C198.185 260.873 198.079 260.914 198.173 261.126C198.584 261.529 198.901 261.72 199.218 261.911C199.218 261.911 199.074 261.929 199.166 262.127C199.56 262.531 199.861 262.739 200.163 262.947C200.163 262.947 200.068 262.944 200.054 263.3C200.059 265.896 199.722 268.221 200.227 270.347C200.546 271.695 202.117 272.746 203.127 273.93C203.127 273.93 203.043 273.951 203.144 274.161C203.54 274.567 203.836 274.763 204.132 274.959C204.132 274.959 204.027 274.96 204.133 275.15C204.809 275.309 205.378 275.278 205.948 275.247Z" fill="#FF6600"/>
<path d="M104.091 308.995C90.7153 299.534 77.6538 290.259 64.6274 280.935C58.4879 276.541 56.1822 271.73 58.2196 267.381C62.7703 257.665 68.3435 252 75.8557 254.255C80.4876 255.646 84.5598 259.145 88.6578 262.019C96.8508 267.765 104.972 273.62 112.967 279.638C121.041 285.715 128.904 292.073 136.904 298.249C140.594 301.097 144.517 303.655 148.107 306.62C151.647 309.544 151.955 312.969 149.555 317.102C146.425 322.493 143.456 327.388 136.366 328.425C130.229 329.323 127.029 324.792 122.88 322.242C116.468 318.303 110.548 313.563 104.091 308.995Z" fill="#FF6600"/>
<path d="M174.453 164.6C178.678 167.696 182.589 170.601 186.554 173.43C197.609 181.32 208.692 189.171 219.754 197.051C227.562 202.614 227.095 209.821 222.073 216.344C219.896 219.172 218.13 222.098 213.839 223.268C208.533 224.716 205.414 221.936 202.068 219.497C193.38 213.165 185.036 206.361 176.389 199.969C170.828 195.858 164.933 192.2 159.261 188.234C152.954 183.824 146.713 179.319 140.475 174.811C133.985 170.12 133.511 163.74 138.993 155.668C143.45 149.103 149.582 147.596 156.018 151.814C162.169 155.844 168.124 160.175 174.453 164.6Z" fill="#FF6600"/>
<path d="M268.028 207.98C270.014 215.098 272.808 222.103 273.825 229.357C276.292 246.965 273.616 264.206 268.089 281.018C267.542 282.681 266.391 284.144 265.18 285.824C270.046 272.901 272.493 259.315 273.041 245.312C273.535 232.702 271.112 220.615 267.306 208.384C267.556 207.995 268.028 207.98 268.028 207.98Z" fill="#FF6600"/>
<path d="M329.668 243.069C330.812 238.769 332.606 234.326 333.532 229.709C335.583 219.488 337.407 209.208 338.862 198.887C339.306 195.74 338.244 192.38 337.817 188.636C336.588 190.913 335.564 192.808 334.207 194.835C335.055 190.328 336.238 185.691 337.629 180.234C343.016 202.609 339.467 223.087 329.668 243.069Z" fill="#FF6600"/>
<path d="M30.6228 195.035C29.9201 201.525 29.0491 208.215 27.8125 214.837C25.6086 226.639 25.5677 238.395 27.8353 250.179C27.9781 250.921 27.611 251.761 27.1779 252.802C26.3387 242.343 24.9958 231.598 25.5206 220.945C25.946 212.308 28.6156 203.78 30.6228 195.035Z" fill="#FF6600"/>
<path d="M202.668 60.0352C196.625 61.8102 190.142 63.1582 183.918 65.2708C175.91 67.9891 168.117 71.3404 160.213 74.372C158.536 75.0154 156.78 75.4557 154.688 75.9846C166.26 71.3335 178.139 66.5049 190.189 62.1479C194.006 60.7676 198.279 60.6458 202.668 60.0352Z" fill="#FF6600"/>
<path d="M293.66 71.0507C294.428 67.5389 295.831 63.8509 296.384 60.0396C297.316 53.6142 297.709 47.1106 298.588 40.3398C300.579 50.8408 298.733 61.0683 293.66 71.0507Z" fill="#FF6600"/>
<path d="M173.004 130.008C182.44 132.654 191.882 135.277 201.301 137.981C202.173 138.232 202.899 138.993 203.805 139.865C193.878 137.472 183.84 134.731 173.401 131.608C173.003 130.821 173.003 130.414 173.004 130.008Z" fill="#FF6600"/>
<path d="M32.9922 261.994C33.9978 251.937 34.9458 241.874 36.0701 231.831C36.2425 230.291 37.2276 228.841 38.2064 227.223C37.0598 238.435 35.5436 249.772 33.7296 261.554C33.4319 261.998 32.9922 261.994 32.9922 261.994Z" fill="#FF6600"/>
<path d="M317.014 144.996C315.799 136.23 314.524 127.472 313.43 118.691C313.25 117.245 313.862 115.701 314.47 114.113C315.914 124.109 316.994 134.196 317.818 144.634C317.379 144.99 317.197 144.993 317.014 144.996Z" fill="#FF6600"/>
<path d="M317.062 145.407C317.194 144.992 317.378 144.988 317.835 144.977C321.223 154.19 320.274 163.506 318.436 173.107C318.079 166.142 318.095 158.906 317.955 151.673C317.918 149.717 317.407 147.771 317.062 145.407Z" fill="#FF6600"/>
<path d="M32.8506 262.283C32.9933 261.994 33.4331 261.998 33.653 262C33.8728 266.417 33.8728 270.832 33.8728 275.246C33.5204 275.367 33.1679 275.488 32.8154 275.608C31.2238 270.996 29.6321 266.384 28.1016 261.395C30.1531 260.147 29.8179 266.07 32.8506 262.283ZM31.7584 266.822C31.5939 266.877 31.4295 266.932 31.2651 266.987C31.4306 267.04 31.5962 267.093 31.7584 266.822Z" fill="#FF6600"/>
<path d="M301.59 115.055C299.753 123.785 297.624 132.729 295.129 141.79C296.941 133.028 299.119 124.149 301.59 115.055Z" fill="#FF6600"/>
<path d="M172.552 130.004C173.001 130.414 173 130.821 172.995 131.532C165.643 131.542 158.295 131.248 150.484 130.887C151.34 130.215 152.67 129.071 153.976 129.098C160.022 129.22 166.061 129.668 172.552 130.004Z" fill="#FF6600"/>
<path d="M289.006 149.983C282.755 156.027 271.403 155.732 264.309 148.969C272.134 153.794 280.136 154.561 288.673 149.506C289.005 149.584 289.006 149.983 289.006 149.983Z" fill="#FF6600"/>
<path d="M288.026 15.6515C287.594 16.9243 286.976 17.81 286.805 18.7749C286.097 22.7709 285.525 26.7908 284.532 30.8965C284.516 24.7483 284.87 18.5053 285.243 11.9297C286.11 12.9717 287.078 14.1363 288.026 15.6515Z" fill="#FF6600"/>
<path d="M121.445 135.93C127.439 134.245 133.847 132.628 140.684 131.027C134.695 132.695 128.277 134.347 121.445 135.93Z" fill="#FF6600"/>
<path d="M268.013 207.598C268.026 207.982 267.554 207.997 267.317 207.999C265.365 203.938 263.649 199.873 261.879 195.438C263.882 199.116 265.941 203.166 268.013 207.598Z" fill="#FF6600"/>
<path d="M279.863 356.754C284.199 357.413 288.706 359.501 293.796 357.108C289.447 361.161 284.749 360.542 279.863 356.754Z" fill="#FF6600"/>
<path d="M202.925 273.573C202.121 272.745 200.55 271.694 200.231 270.346C199.726 268.22 200.063 265.895 200.072 263.254C200.973 266.308 201.846 269.763 202.925 273.573Z" fill="#FF6600"/>
<path d="M333.667 195.117C332.459 198.222 330.991 201.559 329.16 204.915C330.334 201.739 331.871 198.544 333.667 195.117Z" fill="#FF6600"/>
<path d="M262.61 290.02C262.616 292.846 261.269 296.104 264.924 298.53C263.188 297.79 261.391 296.713 259.352 295.49C260.425 293.583 261.378 291.89 262.61 290.02Z" fill="#FF6600"/>
<path d="M256.633 185.727C257.661 187.084 258.802 188.755 259.898 190.81C258.818 189.476 257.782 187.759 256.633 185.727Z" fill="#FF6600"/>
<path d="M290.797 76.1288C291.292 74.6949 292.012 73.0431 293.094 71.3477C292.645 72.8398 291.834 74.3754 290.797 76.1288Z" fill="#FF6600"/>
<path d="M206.98 141.762C208.683 142.298 210.612 143.06 212.475 144.185C210.675 143.695 208.94 142.842 206.98 141.762Z" fill="#FF6600"/>
<path d="M318.855 262.121C319.275 260.984 319.908 259.634 320.891 258.195C320.517 259.372 319.792 260.64 318.855 262.121Z" fill="#FF6600"/>
<path d="M213.969 145.434C215.168 145.806 216.526 146.453 217.934 147.449C216.699 147.102 215.414 146.406 213.969 145.434Z" fill="#FF6600"/>
<path d="M269.973 349.418C271.122 349.932 272.422 350.737 273.818 351.879C272.651 351.38 271.388 350.544 269.973 349.418Z" fill="#FF6600"/>
<path d="M316.32 265.69C316.609 264.631 317.199 263.506 318.142 262.465C317.871 263.574 317.246 264.598 316.32 265.69Z" fill="#FF6600"/>
<path d="M198.042 260.578C197.218 260.416 196.248 259.96 195.16 259.18C195.994 259.332 196.945 259.808 198.042 260.578Z" fill="#FF6600"/>
<path d="M263.352 344.316C264.122 344.545 264.942 345.069 265.842 345.895C265.082 345.668 264.241 345.139 263.352 344.316Z" fill="#FF6600"/>
<path d="M321.434 258.043C321.607 257.228 322.058 256.253 322.837 255.168C322.681 256 322.196 256.942 321.434 258.043Z" fill="#FF6600"/>
<path d="M253.922 181.367C254.535 181.858 255.226 182.659 255.911 183.803C255.27 183.323 254.636 182.5 253.922 181.367Z" fill="#FF6600"/>
<path d="M305.536 107.945C305.38 108.763 304.945 109.742 304.184 110.835C304.324 110.002 304.79 109.054 305.536 107.945Z" fill="#FF6600"/>
<path d="M326.629 249.096C326.748 248.293 327.111 247.291 327.8 246.164C327.709 246.992 327.29 247.944 326.629 249.096Z" fill="#FF6600"/>
<path d="M273.961 352.422C274.779 352.639 275.741 353.142 276.754 354C275.905 353.806 275.006 353.257 273.961 352.422Z" fill="#FF6600"/>
<path d="M252.406 179.289C252.861 179.527 253.387 180.03 253.91 180.839C253.431 180.615 252.954 180.084 252.406 179.289Z" fill="#FF6600"/>
<path d="M328.341 245.927C328.297 245.215 328.522 244.317 329.111 243.355C329.187 244.108 328.899 244.924 328.341 245.927Z" fill="#FF6600"/>
<path d="M204.004 140.41C204.733 140.358 205.638 140.576 206.553 141.168C205.769 141.255 204.975 140.967 204.004 140.41Z" fill="#FF6600"/>
<path d="M264.639 286.039C264.678 286.758 264.45 287.654 263.851 288.555C263.778 287.778 264.075 286.996 264.639 286.039Z" fill="#FF6600"/>
<path d="M277.953 355.4C278.415 355.356 279.013 355.575 279.63 356.14C279.129 356.211 278.61 355.938 277.953 355.4Z" fill="#FF6600"/>
<path d="M205.646 275.125C205.38 275.278 204.811 275.309 204.141 275.097C204.475 274.904 204.909 274.953 205.646 275.125Z" fill="#FF6600"/>
<path d="M294.359 357.167C294.434 356.861 294.762 356.486 295.356 356.07C295.285 356.386 294.948 356.742 294.359 357.167Z" fill="#FF6600"/>
<path d="M306.712 106.336C306.753 106.772 306.521 107.255 306.013 107.804C305.971 107.374 306.205 106.879 306.712 106.336Z" fill="#FF6600"/>
<path d="M288.302 79.6101C288.26 79.193 288.482 78.7223 288.967 78.1758C289.009 78.5855 288.787 79.071 288.302 79.6101Z" fill="#FF6600"/>
<path d="M289.407 78.0646C289.368 77.6007 289.591 77.0049 290.162 76.4141C290.229 76.9237 289.949 77.4282 289.407 78.0646Z" fill="#FF6600"/>
<path d="M265.969 346.382C266.425 346.348 267.017 346.575 267.621 347.146C267.124 347.208 266.614 346.926 265.969 346.382Z" fill="#FF6600"/>
<path d="M194.01 257.611C193.563 257.73 192.956 257.575 192.191 257.137C192.639 257.016 193.245 257.176 194.01 257.611Z" fill="#FF6600"/>
<path d="M293.602 143.965C293.657 144.423 293.445 145.024 292.893 145.671C292.814 145.182 293.075 144.644 293.602 143.965Z" fill="#FF6600"/>
<path d="M323.368 254.992C323.281 254.544 323.467 253.943 323.958 253.219C324.055 253.676 323.848 254.258 323.368 254.992Z" fill="#FF6600"/>
<path d="M324.44 253.063C324.35 252.6 324.53 251.984 325.039 251.273C325.149 251.755 324.93 252.332 324.44 253.063Z" fill="#FF6600"/>
<path d="M325.54 251.115C325.442 250.651 325.597 250.022 326.099 249.328C326.228 249.825 326.011 250.387 325.54 251.115Z" fill="#FF6600"/>
<path d="M303.652 111.035C303.736 111.468 303.558 112.065 303.086 112.798C302.991 112.356 303.19 111.777 303.652 111.035Z" fill="#FF6600"/>
<path d="M262.274 146.519C261.934 146.468 261.517 146.158 261.059 145.562C261.411 145.604 261.804 145.931 262.274 146.519Z" fill="#FF6600"/>
<path d="M302.6 112.988C302.712 113.436 302.552 114.044 302.099 114.798C301.98 114.345 302.155 113.747 302.6 112.988Z" fill="#FF6600"/>
<path d="M260.895 193.352C261.201 193.532 261.555 194.018 261.904 194.829C261.58 194.656 261.262 194.157 260.895 193.352Z" fill="#FF6600"/>
<path d="M259.828 191.387C260.147 191.551 260.528 192.017 260.91 192.811C260.571 192.656 260.231 192.173 259.828 191.387Z" fill="#FF6600"/>
<path d="M294.586 141.977C294.693 142.419 294.539 143.033 294.087 143.791C293.967 143.339 294.146 142.744 294.586 141.977Z" fill="#FF6600"/>
<path d="M267.727 347.642C267.964 347.51 268.322 347.622 268.758 348.026C268.506 348.174 268.176 348.03 267.727 347.642Z" fill="#FF6600"/>
<path d="M263.232 147.523C262.992 147.612 262.655 147.437 262.262 146.967C262.515 146.867 262.825 147.063 263.232 147.523Z" fill="#FF6600"/>
<path d="M268.816 348.438C269.041 348.339 269.378 348.499 269.818 348.93C269.59 349.032 269.258 348.865 268.816 348.438Z" fill="#FF6600"/>
<path d="M290.624 147.863C290.687 148.083 290.484 148.397 289.997 148.773C289.928 148.542 290.143 148.249 290.624 147.863Z" fill="#FF6600"/>
<path d="M276.801 354.466C277.03 354.36 277.372 354.513 277.816 354.939C277.583 355.05 277.248 354.888 276.801 354.466Z" fill="#FF6600"/>
<path d="M264.27 148.446C264.027 148.555 263.677 148.408 263.266 147.964C263.525 147.842 263.844 148.016 264.27 148.446Z" fill="#FF6600"/>
<path d="M291.571 146.82C291.661 147.046 291.49 147.378 291.044 147.802C290.949 147.571 291.129 147.249 291.571 146.82Z" fill="#FF6600"/>
<path d="M195.042 258.701C194.84 258.755 194.545 258.549 194.16 258.079C194.363 258.024 194.656 258.232 195.042 258.701Z" fill="#FF6600"/>
<path d="M289.235 149.839C289.005 149.981 289.004 149.583 289.004 149.383C289.004 149.184 289.341 148.843 289.57 148.77C289.687 149.03 289.576 149.364 289.235 149.839Z" fill="#FF6600"/>
<path d="M212.82 144.785C213.012 144.631 213.352 144.665 213.795 144.964C213.577 145.183 213.267 145.098 212.82 144.785Z" fill="#FF6600"/>
<path d="M255.895 184.326C256.117 184.301 256.396 184.54 256.651 185.07C256.402 185.103 256.177 184.847 255.895 184.326Z" fill="#FF6600"/>
<path d="M263.286 288.812C263.446 289.022 263.392 289.365 263.079 289.822C262.903 289.606 262.987 289.276 263.286 288.812Z" fill="#FF6600"/>
<path d="M204.04 274.699C203.838 274.761 203.542 274.565 203.145 274.116C203.344 274.056 203.644 274.248 204.04 274.699Z" fill="#FF6600"/>
<path d="M200.076 262.679C199.865 262.738 199.564 262.53 199.176 262.053C199.388 261.993 199.686 262.203 200.076 262.679Z" fill="#FF6600"/>
<path d="M199.122 261.646C198.904 261.721 198.587 261.53 198.172 261.07C198.391 260.995 198.707 261.188 199.122 261.646Z" fill="#FF6600"/>
<path d="M292.428 145.738C292.547 145.976 292.414 146.33 291.991 146.763C291.859 146.513 292.018 146.184 292.428 145.738Z" fill="#FF6600"/>
<path d="M31.7606 266.983C31.5968 267.092 31.4312 267.039 31.2656 266.986C31.4301 266.931 31.5945 266.876 31.7606 266.983Z" fill="#FF6600"/>
</g>
</g>
<defs>
<clipPath id="clip0_3970_8">
<rect width="390" height="365" fill="white"/>
</clipPath>
</defs>
</svg>
